<?xml version="1.0" encoding="UTF-8"?>
<svg version="1.1" xmlns="http://www.w3.org/2000/svg" width="372" height="80">
<path d="M0 0 C0.91096939 -0.00953201 1.82193878 -0.01906403 2.76051331 -0.02888489 C4.22471962 -0.02751778 4.22471962 -0.02751778 5.71850586 -0.02612305 C6.72674911 -0.03040817 7.73499237 -0.0346933 8.77378845 -0.03910828 C10.9028956 -0.04484617 13.03202235 -0.04535583 15.16113281 -0.04101562 C18.42473558 -0.03785015 21.68743666 -0.06134104 24.95092773 -0.08666992 C27.01928596 -0.08894235 29.08764664 -0.08964667 31.15600586 -0.08862305 C32.13416763 -0.09783279 33.11232941 -0.10704254 34.12013245 -0.11653137 C35.02794968 -0.11030258 35.93576691 -0.10407379 36.87109375 -0.09765625 C37.66955215 -0.09828568 38.46801056 -0.0989151 39.29066467 -0.0995636 C41.94948379 0.37875353 42.81614595 1.08013244 44.37084961 3.2746582 C44.75852966 5.34138489 44.75852966 5.34138489 44.77490234 7.74267578 C44.78758652 8.64403763 44.80027069 9.54539948 44.81333923 10.47407532 C44.81040359 11.44596298 44.80746796 12.41785065 44.80444336 13.41918945 C44.80968521 14.42173264 44.81492706 15.42427582 44.82032776 16.4571991 C44.82675409 18.57969232 44.8254031 20.70222113 44.81689453 22.82470703 C44.80840887 26.06453428 44.83709894 29.30258445 44.86889648 32.54223633 C44.87050924 34.60538684 44.86992955 36.66854047 44.86694336 38.73168945 C44.87817734 39.69750443 44.88941132 40.6633194 44.90098572 41.65840149 C44.80992381 50.49981383 41.24715347 54.64883427 35.08959961 60.8215332 C34.34655579 61.5674472 34.34655579 61.5674472 33.58850098 62.32843018 C32.54884124 63.36944118 31.50669059 64.40797001 30.4621582 65.4440918 C28.86814026 67.02734926 27.28513998 68.62106494 25.70288086 70.21606445 C24.68659479 71.23102963 23.66968888 72.24537461 22.65209961 73.2590332 C21.73493164 74.17394531 20.81776367 75.08885742 19.87280273 76.03149414 C16.23366781 79.29421581 13.63006652 80.52113685 8.74169922 80.54931641 C7.37524513 80.56361443 7.37524513 80.56361443 5.98118591 80.57820129 C5.00504837 80.57728989 4.02891083 80.57637848 3.02319336 80.57543945 C2.0149501 80.57972458 1.00670685 80.5840097 -0.03208923 80.58842468 C-2.16119638 80.59416257 -4.29032314 80.59467223 -6.41943359 80.59033203 C-9.68303636 80.58716656 -12.94573745 80.61065745 -16.20922852 80.63598633 C-18.27758674 80.63825875 -20.34594742 80.63896308 -22.41430664 80.63793945 C-23.39246841 80.6471492 -24.37063019 80.65635895 -25.37843323 80.66584778 C-26.28625046 80.65961899 -27.19406769 80.6533902 -28.12939453 80.64697266 C-28.92785294 80.64760208 -29.72631134 80.64823151 -30.54896545 80.64888 C-33.20884255 80.17037255 -34.07086787 79.46771054 -35.62915039 77.2746582 C-36.05047607 75.19688416 -36.05047607 75.19688416 -36.11254883 72.77832031 C-36.14137146 71.86984848 -36.17019409 70.96137665 -36.19989014 70.02537537 C-36.21263977 69.04416214 -36.2253894 68.06294891 -36.23852539 67.05200195 C-36.25562561 66.03674942 -36.27272583 65.02149689 -36.29034424 63.97547913 C-36.31870062 61.82277807 -36.33829886 59.66994665 -36.34985352 57.51708984 C-36.378841 54.24705966 -36.47179836 50.98280115 -36.56665039 47.71411133 C-36.84009775 30.18398685 -36.84009775 30.18398685 -31.66430664 24.37231445 C-30.01973181 22.96590263 -28.34049352 21.59901665 -26.62915039 20.2746582 C-25.05041021 18.67976847 -23.49166593 17.06484113 -21.95336914 15.4309082 C-20.41039815 13.87623819 -18.86482966 12.32414175 -17.31665039 10.7746582 C-16.53225586 9.97801758 -15.74786133 9.18137695 -14.93969727 8.3605957 C-14.18108398 7.60004883 -13.4224707 6.83950195 -12.64086914 6.0559082 C-11.96499756 5.37592773 -11.28912598 4.69594727 -10.59277344 3.99536133 C-7.20932523 1.03047969 -4.48412181 0.02584923 0 0 Z " fill="#000000" transform="translate(35.629150390625,-0.274658203125)"/>
<path d="M0 0 C0.91096939 -0.00953201 1.82193878 -0.01906403 2.76051331 -0.02888489 C4.22471962 -0.02751778 4.22471962 -0.02751778 5.71850586 -0.02612305 C6.72674911 -0.03040817 7.73499237 -0.0346933 8.77378845 -0.03910828 C10.9028956 -0.04484617 13.03202235 -0.04535583 15.16113281 -0.04101562 C18.42473558 -0.03785015 21.68743666 -0.06134104 24.95092773 -0.08666992 C27.01928596 -0.08894235 29.08764664 -0.08964667 31.15600586 -0.08862305 C32.62324852 -0.10243767 32.62324852 -0.10243767 34.12013245 -0.11653137 C35.02794968 -0.11030258 35.93576691 -0.10407379 36.87109375 -0.09765625 C37.66955215 -0.09828568 38.46801056 -0.0989151 39.29066467 -0.0995636 C41.94948379 0.37875353 42.81614595 1.08013244 44.37084961 3.2746582 C44.75852966 5.34138489 44.75852966 5.34138489 44.77490234 7.74267578 C44.78758652 8.64403763 44.80027069 9.54539948 44.81333923 10.47407532 C44.81040359 11.44596298 44.80746796 12.41785065 44.80444336 13.41918945 C44.80968521 14.42173264 44.81492706 15.42427582 44.82032776 16.4571991 C44.82675409 18.57969232 44.8254031 20.70222113 44.81689453 22.82470703 C44.80840887 26.06453428 44.83709894 29.30258445 44.86889648 32.54223633 C44.87050924 34.60538684 44.86992955 36.66854047 44.86694336 38.73168945 C44.87817734 39.69750443 44.88941132 40.6633194 44.90098572 41.65840149 C44.82039821 49.48283016 42.26811591 53.64568846 36.73413086 59.1418457 C36.07477539 59.79926758 35.41541992 60.45668945 34.73608398 61.1340332 C33.71998047 62.13176758 33.71998047 62.13176758 32.68334961 63.1496582 C31.64984375 64.18219727 31.64984375 64.18219727 30.59545898 65.2355957 C25.51140485 70.2746582 25.51140485 70.2746582 24.37084961 70.2746582 C24.37084961 53.7746582 24.37084961 37.2746582 24.37084961 20.2746582 C7.87084961 20.2746582 -8.62915039 20.2746582 -25.62915039 20.2746582 C-21.81434964 15.82405733 -18.11279453 11.59973646 -14.00415039 7.4621582 C-13.08375977 6.52758789 -12.16336914 5.59301758 -11.21508789 4.63012695 C-7.54345924 1.28572804 -4.96552432 0.02862433 0 0 Z " fill="#F10096" transform="translate(35.629150390625,-0.274658203125)"/>
<path d="M0 0 C0 16.5 0 33 0 50 C16.5 50 33 50 50 50 C41.7055761 59.67682789 41.7055761 59.67682789 36.8114624 60.26141357 C34.05349183 60.39830044 31.3159854 60.41570725 28.5546875 60.3984375 C27.04444504 60.40274277 27.04444504 60.40274277 25.50369263 60.40713501 C23.38054846 60.40917252 21.25738539 60.40366462 19.13427734 60.39111328 C15.87945833 60.37502204 12.6258748 60.39099024 9.37109375 60.41015625 C7.30728892 60.40817442 5.24348486 60.404332 3.1796875 60.3984375 C2.20466278 60.40451019 1.22963806 60.41058289 0.22506714 60.4168396 C-0.6795224 60.40738312 -1.58411194 60.39792664 -2.51611328 60.38818359 C-3.31155548 60.38579681 -4.10699768 60.38341003 -4.92654419 60.38095093 C-7.5782201 59.89376505 -8.4439044 59.18700215 -10 57 C-10.42132568 54.92222595 -10.42132568 54.92222595 -10.48339844 52.50366211 C-10.51222107 51.59519028 -10.5410437 50.68671844 -10.57073975 49.75071716 C-10.58348938 48.76950394 -10.59623901 47.78829071 -10.609375 46.77734375 C-10.62647522 45.76209122 -10.64357544 44.74683868 -10.66119385 43.70082092 C-10.68955023 41.54811986 -10.70914847 39.39528845 -10.72070312 37.24243164 C-10.74969061 33.97240146 -10.84264797 30.70814295 -10.9375 27.43945312 C-11.19973503 9.89683968 -11.19973503 9.89683968 -5.515625 3.50390625 C-1.49598371 0 -1.49598371 0 0 0 Z " fill="#FE4B1A" transform="translate(10,20)"/>
<path d="M0 0 C3.526875 -0.061875 7.05375 -0.12375 10.6875 -0.1875 C12.342052 -0.22846802 12.342052 -0.22846802 14.0300293 -0.27026367 C23.01660279 -0.34670667 23.01660279 -0.34670667 27 3 C29.3981977 5.3981977 29.9506333 6.60506642 30.375 10 C29.96644557 13.26843543 29.20409407 14.61223142 27 17 C28.20381448 19.49361571 29.45428722 21.68143083 31 24 C31.52406828 27.93051214 31.14790087 29.72532696 29.25 33.25 C27.05004067 35.93883918 26.13578207 36.80127034 23 38 C20.43457031 38.22705078 20.43457031 38.22705078 17.578125 38.1953125 C16.65418945 38.19031738 15.73025391 38.18532227 14.77832031 38.18017578 C13.61397461 38.16196777 12.44962891 38.14375977 11.25 38.125 C7.5375 38.08375 3.825 38.0425 0 38 C0 25.46 0 12.92 0 0 Z M9 7 C9 9.64 9 12.28 9 15 C12.3 15 15.6 15 19 15 C19.66 13.35 20.32 11.7 21 10 C19.29171079 7.89366282 18.47851584 7.06198392 15.73828125 6.70703125 C14.53751953 6.75923828 14.53751953 6.75923828 13.3125 6.8125 C12.50425781 6.83957031 11.69601563 6.86664063 10.86328125 6.89453125 C10.24839844 6.92933594 9.63351563 6.96414062 9 7 Z M9 22 C9 24.97 9 27.94 9 31 C15.39825263 31.47326369 15.39825263 31.47326369 21 29 C21.5 26.5 21.5 26.5 21 24 C16.7975546 21.19836974 13.99895065 21.85510288 9 22 Z " fill="#FEFEFF" transform="translate(186,26)"/>
<path d="M0 0 C2.97 0 5.94 0 9 0 C11.35685173 2.47327831 12.69965129 4.23000434 14.3125 7.125 C14.71533203 7.79015625 15.11816406 8.4553125 15.53320312 9.140625 C16.29420043 10.39867564 17.04196123 11.6649167 17.77075195 12.94189453 C19.41267464 15.69093291 21.22382242 18.33573363 23 21 C23.33 14.07 23.66 7.14 24 0 C26.64 0 29.28 0 32 0 C33.78830448 1.78830448 33.12848711 4.19581152 33.13894653 6.57641602 C33.1369223 7.35557373 33.13489807 8.13473145 33.1328125 8.9375 C33.13376923 9.732771 33.13472595 10.52804199 33.13571167 11.34741211 C33.13639343 13.0320646 33.13453943 14.71671971 33.13037109 16.40136719 C33.12502275 18.98899197 33.13031619 21.57644316 33.13671875 24.1640625 C33.13605797 25.79687539 33.1347768 27.42968816 33.1328125 29.0625 C33.13483673 29.84165771 33.13686096 30.62081543 33.13894653 31.42358398 C33.11495105 36.88504895 33.11495105 36.88504895 32 38 C28.7932403 38.86267271 26.19395101 38.94371082 23 38 C19.7790884 34.75532066 17.67490162 30.96353628 15.4375 27 C14.81037109 25.95070313 14.18324219 24.90140625 13.53710938 23.8203125 C11.9952257 21.23088953 10.49362259 18.61755766 9 16 C8.67 23.26 8.34 30.52 8 38 C5.36 38 2.72 38 0 38 C0 25.46 0 12.92 0 0 Z " fill="#FEFEFF" transform="translate(307,26)"/>
<path d="M0 0 C5.506875 -0.12375 5.506875 -0.12375 11.125 -0.25 C12.2711377 -0.28641602 13.41727539 -0.32283203 14.59814453 -0.36035156 C20.73320915 -0.42704874 24.35863791 -0.14628346 29 4 C31.3788114 7.02757815 31.35978528 10.244687 31.25390625 14.03515625 C30.87642532 16.95627792 29.85858628 18.74314524 28 21 C26.68669105 21.70529555 25.35497704 22.37850227 24 23 C24.5775 23.99902344 25.155 24.99804688 25.75 26.02734375 C26.50011259 27.33066437 27.25010648 28.63405332 28 29.9375 C28.3815625 30.59685547 28.763125 31.25621094 29.15625 31.93554688 C32 36.88671875 32 36.88671875 32 38 C28.37 38 24.74 38 21 38 C20.54109375 37.07316406 20.0821875 36.14632812 19.609375 35.19140625 C18.99030319 33.98140226 18.37047172 32.77178673 17.75 31.5625 C17.44964844 30.95083984 17.14929688 30.33917969 16.83984375 29.70898438 C15.83355002 27.69960437 15.83355002 27.69960437 14 25 C12.68 24.67 11.36 24.34 10 24 C10 28.62 10 33.24 10 38 C6.7 38 3.4 38 0 38 C0 25.46 0 12.92 0 0 Z M10 7 C10 10.3 10 13.6 10 17 C11.423125 17.061875 12.84625 17.12375 14.3125 17.1875 C15.11300781 17.22230469 15.91351563 17.25710937 16.73828125 17.29296875 C19.06787042 17.1803446 19.06787042 17.1803446 20.796875 15.6484375 C22.26014959 13.99495625 22.26014959 13.99495625 21.9375 11.4375 C21.21363295 8.94855534 21.21363295 8.94855534 19.375 7.6875 C16.20198632 6.76899604 13.28355254 6.87370952 10 7 Z " fill="#FEFEFE" transform="translate(220,26)"/>
<path d="M0 0 C9.24 0 18.48 0 28 0 C28 2.64 28 5.28 28 8 C21.73 8 15.46 8 9 8 C9 10.31 9 12.62 9 15 C14.61 15 20.22 15 26 15 C26 17.64 26 20.28 26 23 C20.39 23 14.78 23 9 23 C9 25.31 9 27.62 9 30 C15.6 30 22.2 30 29 30 C29 32.64 29 35.28 29 38 C19.43 38 9.86 38 0 38 C0 25.46 0 12.92 0 0 Z " fill="#FEFEFE" transform="translate(122,26)"/>
<path d="M0 0 C3.5577975 1.38358791 6.76757224 2.82760265 9 6 C9.6875 9.1875 9.6875 9.1875 10 12 C7.03 12 4.06 12 1 12 C0.67 11.01 0.34 10.02 0 9 C-2.31 9 -4.62 9 -7 9 C-7.33 10.32 -7.66 11.64 -8 13 C-7.11957031 13.21914063 -6.23914063 13.43828125 -5.33203125 13.6640625 C5.35365133 16.58157406 5.35365133 16.58157406 8.3125 19.6875 C10.497668 23.97690386 11.0546559 27.28357884 10 32 C8.26604936 35.33343164 5.92808868 37.44816349 2.6875 39.375 C-3.93486668 40.91508527 -9.07975065 40.41552847 -15 37 C-18.064967 33.30632183 -19 31.85041092 -19 27 C-15.96570498 26.76659269 -13.0266943 26.63679668 -10 27 C-8.62804426 28.29355827 -7.28817344 29.62298702 -6 31 C-2.80045046 30.85650653 -2.80045046 30.85650653 0 30 C0 28.68 0 27.36 0 26 C-0.88042969 25.78085937 -1.76085937 25.56171875 -2.66796875 25.3359375 C-13.34890882 22.41972079 -13.34890882 22.41972079 -16.3125 19.1875 C-18.33084726 15.37506629 -18.61922663 13.25718311 -18 9 C-14.66647068 1.03656885 -8.029301 -1.20871198 0 0 Z " fill="#FEFEFF" transform="translate(362,25)"/>
<path d="M0 0 C1.37478516 0.01740234 1.37478516 0.01740234 2.77734375 0.03515625 C3.69644531 0.04417969 4.61554688 0.05320312 5.5625 0.0625 C6.27277344 0.07410156 6.98304688 0.08570312 7.71484375 0.09765625 C9.57250153 5.02493389 11.42373823 9.95455732 13.26904297 14.88647461 C13.89781215 16.56422035 14.52833677 18.24130928 15.16064453 19.91772461 C16.06874542 22.32625906 16.97052522 24.7370782 17.87109375 27.1484375 C18.15545288 27.89853592 18.43981201 28.64863434 18.73278809 29.42146301 C19.85706353 32.44737963 20.71484375 34.84194346 20.71484375 38.09765625 C17.74484375 38.09765625 14.77484375 38.09765625 11.71484375 38.09765625 C10.45819397 35.19165364 9.71484375 33.30161041 9.71484375 30.09765625 C5.09484375 30.09765625 0.47484375 30.09765625 -4.28515625 30.09765625 C-4.94515625 32.73765625 -5.60515625 35.37765625 -6.28515625 38.09765625 C-9.25515625 38.09765625 -12.22515625 38.09765625 -15.28515625 38.09765625 C-14.65110998 33.43589375 -13.40686403 29.17444318 -11.81640625 24.765625 C-11.45585144 23.74980095 -11.45585144 23.74980095 -11.0880127 22.7134552 C-10.58271532 21.29322387 -10.07498668 19.87385541 -9.56494141 18.45532227 C-8.78199993 16.27637213 -8.00763101 14.09451306 -7.234375 11.91210938 C-6.74138459 10.52976979 -6.24791223 9.14760197 -5.75390625 7.765625 C-5.52159302 7.11152145 -5.28927979 6.45741791 -5.04992676 5.78349304 C-3.00953776 0.12861272 -3.00953776 0.12861272 0 0 Z M1.71484375 10.09765625 C1.20972131 11.70021733 0.71092748 13.30477417 0.21484375 14.91015625 C-0.06359375 15.80347656 -0.34203125 16.69679688 -0.62890625 17.6171875 C-1.41303976 20.1533902 -1.41303976 20.1533902 -1.28515625 23.09765625 C1.35484375 23.09765625 3.99484375 23.09765625 6.71484375 23.09765625 C6.2628813 21.491683 5.80302048 19.88793117 5.33984375 18.28515625 C5.08460938 17.39183594 4.829375 16.49851562 4.56640625 15.578125 C3.76217714 12.89297729 3.76217714 12.89297729 1.71484375 10.09765625 Z " fill="#FEFFFE" transform="translate(269.28515625,25.90234375)"/>
<path d="M0 0 C10.56 0 21.12 0 32 0 C32 2.64 32 5.28 32 8 C28.37 8 24.74 8 21 8 C21 17.9 21 27.8 21 38 C17.7 38 14.4 38 11 38 C11 28.1 11 18.2 11 8 C7.37 8 3.74 8 0 8 C0 5.36 0 2.72 0 0 Z " fill="#FEFEFF" transform="translate(152,26)"/>
<path d="M0 0 C2.97 0 5.94 0 9 0 C9.08735463 4.54154478 9.14051247 9.08287232 9.1875 13.625 C9.21263672 14.91019531 9.23777344 16.19539063 9.26367188 17.51953125 C9.27333984 18.76347656 9.28300781 20.00742187 9.29296875 21.2890625 C9.3086792 22.43068848 9.32438965 23.57231445 9.34057617 24.74853516 C8.84606103 29.4696482 7.034096 32.73239845 4.0625 36.375 C-0.75765644 38.93263403 -5.6526188 38.30702667 -11 38 C-11 35.36 -11 32.72 -11 30 C-10.36191406 29.87882812 -9.72382812 29.75765625 -9.06640625 29.6328125 C-8.24011719 29.46523438 -7.41382812 29.29765625 -6.5625 29.125 C-5.32693359 28.88136719 -5.32693359 28.88136719 -4.06640625 28.6328125 C-3.38449219 28.42398438 -2.70257813 28.21515625 -2 28 C-0.65893595 25.3178719 -0.78549581 23.11601968 -0.68359375 20.1171875 C-0.64169922 18.95058594 -0.59980469 17.78398438 -0.55664062 16.58203125 C-0.49766602 14.74705078 -0.49766602 14.74705078 -0.4375 12.875 C-0.39431641 11.64394531 -0.35113281 10.41289063 -0.30664062 9.14453125 C-0.20031296 6.09647147 -0.09828219 3.0483281 0 0 Z " fill="#FEFEFF" transform="translate(108,26)"/>
<path d="M0 0 C3.3 0 6.6 0 10 0 C10 12.54 10 25.08 10 38 C6.7 38 3.4 38 0 38 C0 25.46 0 12.92 0 0 Z " fill="#FEFEFF" transform="translate(292,26)"/>
<path d="M0 0 C7.26 0 14.52 0 22 0 C22 1.65 22 3.3 22 5 C14.74 5 7.48 5 0 5 C0 3.35 0 1.7 0 0 Z " fill="#EAEAEA" transform="translate(16,59)"/>
</svg>
