<?xml version="1.0" encoding="UTF-8"?>
<svg version="1.1" xmlns="http://www.w3.org/2000/svg" width="113" height="109">
<path d="M0 0 C37.29 0 74.58 0 113 0 C113 35.97 113 71.94 113 109 C75.71 109 38.42 109 0 109 C0 73.03 0 37.06 0 0 Z " fill="#020202" transform="translate(0,0)"/>
<path d="M0 0 C3.3 0 6.6 0 10 0 C10.82134989 2.49738858 11.63215748 4.99744805 12.4375 7.5 C12.66759766 8.19609375 12.89769531 8.8921875 13.13476562 9.609375 C14.67049584 14.41687828 15.5077359 18.97551131 16 24 C16.66 24 17.32 24 18 24 C18.11214844 23.02933594 18.22429688 22.05867188 18.33984375 21.05859375 C18.97796409 16.5917514 20.24498886 12.36932212 21.5625 8.0625 C21.79646484 7.28326172 22.03042969 6.50402344 22.27148438 5.70117188 C22.84317421 3.79942813 23.42095691 1.89951774 24 0 C26.64 0 29.28 0 32 0 C34.35168122 6.27910822 36.5402379 12.55669658 38.38671875 19.00390625 C38.95380845 21.0449552 38.95380845 21.0449552 40 23 C41.98 15.41 43.96 7.82 46 0 C49.63 0 53.26 0 57 0 C53.02168461 15.12466058 48.88707169 30.14186996 44 45 C41.36 45 38.72 45 36 45 C32.94781678 37.5221511 31.00287723 29.80817115 29 22 C27.23212691 24.65180963 26.53701448 26.18072378 25.74609375 29.16015625 C25.53146484 29.95357422 25.31683594 30.74699219 25.09570312 31.56445312 C24.87849609 32.38880859 24.66128906 33.21316406 24.4375 34.0625 C24.00048919 35.69969794 23.56176704 37.33644032 23.12109375 38.97265625 C22.83383423 40.05945679 22.83383423 40.05945679 22.54077148 41.16821289 C22 43 22 43 21 45 C18.03 45 15.06 45 12 45 C10.28772435 38.91367979 8.57881141 32.8264295 6.87304688 26.73828125 C6.29194649 24.66607988 5.70991811 22.59413852 5.12695312 20.52246094 C4.29054193 17.54950279 3.4574417 14.5756342 2.625 11.6015625 C2.23127197 10.20618759 2.23127197 10.20618759 1.82958984 8.78262329 C1.58934082 7.92188202 1.3490918 7.06114075 1.1015625 6.17431641 C0.88838379 5.41486725 0.67520508 4.65541809 0.45556641 3.87295532 C0 2 0 2 0 0 Z " fill="#F9F9F9" transform="translate(8,11)"/>
<path d="M0 0 C0.66 0.33 1.32 0.66 2 1 C0.87548273 3.9719385 -0.22293791 6.33440687 -2 9 C-2.56847656 8.7834375 -3.13695313 8.566875 -3.72265625 8.34375 C-8.70839692 6.54588692 -12.69955376 5.55829615 -18 6 C-19.29633621 7.06645115 -19.29633621 7.06645115 -19.0625 9.5625 C-19.041875 10.366875 -19.02125 11.17125 -19 12 C-17.97519531 12.32613281 -16.95039062 12.65226562 -15.89453125 12.98828125 C-14.53374877 13.42936247 -13.17307751 13.87078693 -11.8125 14.3125 C-11.13896484 14.52583984 -10.46542969 14.73917969 -9.77148438 14.95898438 C-4.47629133 16.68960844 -0.19902758 18.20145863 3 23 C3.74983492 27.52784934 4.00067756 32.05040407 1.8671875 36.20703125 C-1.84852284 40.8273517 -5.32537992 42.46658741 -11.1796875 43.31640625 C-18.87976425 43.89452703 -24.4599197 40.77571646 -31 37 C-31 33.09161134 -29.49432124 31.88405893 -27 29 C-22 31 -22 31 -19.625 32.125 C-16.27259234 33.24246922 -13.51207766 33.2601539 -10 33 C-9.01 32.34 -8.02 31.68 -7 31 C-6.93724541 29.04229699 -6.93724541 29.04229699 -8 27 C-10.434539 25.99436429 -12.66215062 25.239916 -15.1875 24.5625 C-20.94564223 23.00639717 -24.69566401 21.22595658 -29 17 C-30.36711412 12.89865765 -30.75222526 9.27916823 -30 5 C-27.93985123 1.32906376 -25.27649799 -1.18445962 -21.75 -3.4375 C-13.50935337 -5.12308681 -7.35837466 -3.94878295 0 0 Z " fill="#F7F7F7" transform="translate(99,14)"/>
<path d="M0 0 C14.85 0 29.7 0 45 0 C45 2.31 45 4.62 45 7 C30.15 7 15.3 7 0 7 C0 4.69 0 2.38 0 0 Z " fill="#FFFFFF" transform="translate(12,94)"/>
</svg>
